# xmcd
#
# Track frame offsets:
#	183
#	13123
#	29788
#	56513
#	66285
#	77260
#	88560
#	102168
#	113955
#	128288
#	138188
#	150510
#	163683
#	180430
#	194525
#	207618
#	221883
#	233540
#	245853
#	258243
#
# Disc length: 3597
#
# Revision: 6
# Processed by: cddbd v1.5.1PL0 Copyright (c) Steve Scherf et al.
# Submitted via: audiograbber 1.82.00
# Normalized: r5:DSETVAR2
#
DISCID=120e0b14
DTITLE=Various Artist - Blues Gems - Vol. 4
DYEAR=1989
DGENRE=Blues
TTITLE0=John Lee Hooker - Catfish Blues
TTITLE1=Muddy Waters - Blow Wind Blow
TTITLE2=Buddy Guy - Stone Crazy
TTITLE3=Chuck Berry - Confessin' The Blues
TTITLE4=Frank Frost - My Back Scratcher
TTITLE5=Jimmy Rogers - Trace Of You
TTITLE6=Little Walter - Blues With A Feeling
TTITLE7=Memphis Slim - Sassy Mae
TTITLE8=Big Walter Horton - Hard Headed Woman
TTITLE9=Elmore James - Talk To Me Baby
TTITLE10=Billy Boy Arnold - She Fooled Me
TTITLE11=Eddie Taylor - Bad Boy
TTITLE12=Buster Benton - Money Is The Name Of The Game
TTITLE13=Otis Rush - So Many Roads, So Many Trains
TTITLE14=Koko Taylor - Wang Dang Doodle
TTITLE15=Sonny Boy Williamson - Help Me
TTITLE16=Alden "Tarheel Slim" Bunn - Too Much Competition
TTITLE17=Magic Sam - 21 Days In Jail
TTITLE18=Rufus Thomas - Bear Cat
TTITLE19=Junior Parker - Love My Baby
EXTD=Green Line - CD5VIN04
EXTT0=
EXTT1=
EXTT2=
EXTT3=
EXTT4=
EXTT5=
EXTT6=
EXTT7=
EXTT8=
EXTT9=
EXTT10=
EXTT11=
EXTT12=
EXTT13=
EXTT14=
EXTT15=
EXTT16=
EXTT17=
EXTT18=
EXTT19=
PLAYORDER=
